<?xml version="1.0" encoding="UTF-8"?>
<svg xmlns="http://www.w3.org/2000/svg" xmlns:xlink="http://www.w3.org/1999/xlink" width="1190.25pt" height="1683.749945pt" viewBox="0 0 1190.25 1683.749945" version="1.2">
<defs>
<clipPath id="clip1">
  <path d="M 15 59.464844 L 1175 59.464844 L 1175 1531 L 15 1531 Z M 15 59.464844 "/>
</clipPath>
</defs>
<g id="surface1">
<g clip-path="url(#clip1)" clip-rule="nonzero">
<path style=" stroke:none;fill-rule:nonzero;fill:rgb(77.648926%,54.508972%,23.139954%);fill-opacity:1;" d="M 1172.792969 709.550781 C 1172.792969 700.300781 1171.472656 691.050781 1170.152344 683.125 C 1168.832031 671.230469 1167.511719 659.339844 1164.867188 646.125 C 1160.90625 627.628906 1155.625 610.453125 1150.339844 591.953125 C 1147.699219 582.703125 1145.058594 573.453125 1142.417969 564.207031 C 1139.773438 554.957031 1137.132812 545.707031 1134.492188 536.457031 C 1127.886719 517.960938 1119.964844 500.78125 1110.71875 483.605469 C 1102.792969 466.429688 1093.550781 450.574219 1082.984375 433.394531 C 1079.019531 426.789062 1076.378906 421.503906 1072.417969 414.898438 C 1068.457031 408.292969 1063.171875 401.683594 1059.210938 395.078125 C 1049.964844 381.863281 1042.039062 368.652344 1032.796875 355.4375 C 1024.871094 343.546875 1015.625 330.332031 1007.703125 318.441406 C 999.777344 306.550781 993.175781 293.335938 987.890625 280.125 C 981.289062 264.269531 974.683594 247.089844 969.402344 231.234375 C 966.757812 221.984375 964.117188 214.058594 962.796875 204.808594 C 961.476562 196.882812 960.15625 187.632812 958.835938 178.382812 C 957.515625 169.132812 956.195312 159.882812 954.871094 150.636719 C 953.550781 133.457031 953.550781 114.960938 953.550781 97.78125 C 953.550781 89.855469 953.550781 81.925781 952.230469 74 C 952.230469 70.035156 950.910156 66.070312 948.269531 63.429688 C 945.628906 60.785156 942.984375 59.464844 939.023438 59.464844 C 937.703125 59.464844 936.382812 59.464844 936.382812 59.464844 C 933.742188 59.464844 929.777344 62.109375 928.457031 63.429688 C 925.816406 64.75 923.175781 66.070312 920.535156 67.394531 C 916.570312 68.714844 913.929688 71.355469 909.96875 72.679688 C 902.042969 76.640625 895.441406 81.925781 887.515625 85.890625 C 879.589844 91.175781 870.347656 95.140625 862.421875 100.425781 C 854.496094 104.390625 847.894531 109.675781 841.289062 114.960938 C 833.367188 120.246094 826.761719 126.851562 818.839844 132.136719 C 810.914062 137.421875 802.988281 142.707031 795.066406 147.992188 C 779.214844 159.882812 763.367188 171.777344 748.839844 186.3125 C 734.3125 199.523438 719.785156 211.414062 706.578125 224.628906 C 693.367188 237.84375 680.160156 253.699219 669.597656 268.230469 C 655.066406 288.050781 640.539062 307.871094 628.652344 330.332031 C 616.765625 352.796875 604.878906 376.578125 595.636719 400.363281 C 589.03125 417.539062 583.75 436.039062 578.464844 453.214844 C 573.183594 471.714844 569.222656 490.210938 563.9375 508.710938 C 559.976562 525.886719 556.011719 543.066406 552.050781 560.242188 C 550.730469 554.957031 548.089844 549.671875 546.769531 544.386719 C 542.804688 535.136719 537.523438 525.886719 533.5625 517.960938 C 525.636719 502.105469 515.070312 488.890625 504.503906 475.679688 C 493.9375 462.464844 482.054688 447.929688 468.84375 436.039062 C 460.921875 429.433594 452.996094 422.824219 445.074219 417.539062 C 438.46875 412.253906 430.542969 406.96875 423.941406 401.683594 C 417.335938 396.398438 409.414062 391.113281 402.808594 385.828125 C 396.207031 381.863281 388.28125 377.902344 381.675781 373.9375 C 373.753906 369.972656 365.828125 366.007812 357.90625 363.367188 C 348.660156 359.402344 339.414062 355.4375 330.167969 351.476562 C 322.246094 348.832031 313 346.1875 305.074219 343.546875 C 297.152344 340.902344 287.90625 339.582031 279.980469 336.941406 C 270.738281 334.296875 261.492188 332.976562 252.246094 330.332031 C 243 327.691406 232.433594 325.046875 223.191406 321.085938 C 204.699219 315.800781 186.210938 309.191406 167.71875 302.585938 C 158.476562 298.621094 149.230469 294.660156 141.304688 289.371094 C 132.058594 284.085938 124.136719 278.800781 116.210938 273.515625 C 113.570312 270.875 110.929688 269.554688 108.289062 266.910156 C 104.324219 262.945312 101.683594 260.304688 97.722656 256.339844 C 92.4375 249.734375 85.835938 243.128906 80.550781 237.84375 C 77.910156 235.199219 75.269531 232.558594 71.308594 229.914062 C 68.664062 227.269531 64.703125 225.949219 60.742188 225.949219 C 56.777344 225.949219 52.816406 227.269531 50.175781 229.914062 C 47.535156 232.558594 46.214844 235.199219 44.890625 237.84375 C 42.25 243.128906 40.929688 249.734375 39.609375 255.019531 C 35.648438 272.195312 31.683594 288.050781 27.722656 305.230469 C 26.402344 313.15625 23.761719 321.085938 22.441406 330.332031 C 19.796875 339.582031 18.476562 350.152344 18.476562 359.402344 C 17.15625 368.652344 17.15625 377.902344 15.835938 385.828125 C 15.835938 395.078125 15.835938 403.003906 15.835938 412.253906 C 15.835938 430.753906 17.15625 450.574219 21.121094 469.070312 C 25.082031 486.25 30.363281 503.425781 35.648438 520.601562 C 40.929688 536.457031 47.535156 552.3125 54.136719 568.167969 C 64.703125 593.273438 79.230469 617.058594 91.117188 642.164062 C 97.722656 656.699219 103.003906 672.554688 108.289062 687.085938 C 113.570312 705.585938 118.851562 724.085938 124.136719 742.582031 C 128.097656 759.757812 132.058594 776.9375 136.023438 794.113281 C 139.984375 809.96875 142.625 827.144531 145.269531 844.324219 C 146.589844 853.574219 146.589844 861.5 147.910156 870.75 C 147.910156 880 147.910156 889.246094 147.910156 898.496094 C 147.910156 916.996094 147.910156 936.816406 147.910156 955.3125 C 147.910156 973.8125 147.910156 992.308594 149.230469 1010.808594 C 149.230469 1020.058594 150.550781 1029.308594 151.871094 1038.554688 C 153.191406 1049.125 154.511719 1059.695312 157.152344 1068.945312 C 161.117188 1087.445312 167.71875 1105.941406 175.644531 1124.441406 C 179.605469 1132.367188 183.570312 1140.296875 187.53125 1148.226562 C 191.492188 1156.152344 195.457031 1164.082031 200.738281 1170.6875 C 209.984375 1186.542969 217.90625 1202.398438 227.152344 1218.253906 C 231.113281 1226.183594 236.398438 1234.109375 240.359375 1242.039062 C 245.644531 1249.964844 250.925781 1257.894531 256.207031 1264.5 C 261.492188 1272.429688 268.09375 1280.355469 274.699219 1288.285156 C 279.980469 1294.890625 286.585938 1301.496094 291.867188 1308.101562 C 298.472656 1314.710938 305.074219 1319.996094 311.679688 1325.28125 C 319.605469 1331.886719 327.527344 1337.171875 335.453125 1342.457031 C 343.375 1347.742188 349.980469 1353.027344 357.90625 1356.992188 C 364.507812 1362.277344 372.433594 1366.242188 379.035156 1371.527344 C 393.5625 1382.097656 410.734375 1388.703125 427.902344 1395.308594 C 434.507812 1397.953125 442.429688 1400.59375 449.035156 1403.238281 C 455.636719 1405.878906 463.5625 1405.878906 470.167969 1407.203125 C 484.695312 1409.84375 500.542969 1411.164062 516.390625 1412.488281 C 532.242188 1415.128906 548.089844 1419.09375 563.9375 1423.058594 C 579.785156 1427.019531 595.636719 1430.984375 610.164062 1436.269531 C 618.085938 1438.914062 624.691406 1441.554688 632.617188 1444.199219 C 640.539062 1446.839844 648.464844 1448.164062 656.390625 1450.804688 C 670.917969 1454.769531 684.125 1460.054688 697.332031 1465.339844 C 701.292969 1466.660156 705.253906 1469.304688 709.21875 1471.945312 C 713.179688 1474.589844 717.140625 1477.230469 721.105469 1479.875 C 726.386719 1483.835938 732.992188 1489.121094 738.273438 1494.40625 C 740.914062 1497.050781 744.878906 1499.695312 747.519531 1502.335938 C 750.160156 1508.941406 751.480469 1515.550781 752.800781 1522.15625 C 754.121094 1527.441406 760.726562 1531.40625 766.007812 1530.082031 C 768.652344 1530.082031 769.972656 1528.761719 771.292969 1527.441406 C 773.933594 1527.441406 776.574219 1527.441406 779.214844 1526.121094 C 780.535156 1524.796875 781.859375 1523.476562 783.179688 1522.15625 C 785.820312 1520.835938 788.460938 1518.191406 788.460938 1514.226562 C 789.78125 1508.941406 789.78125 1504.980469 791.101562 1499.695312 C 793.746094 1485.160156 797.707031 1470.625 800.347656 1456.089844 C 800.347656 1452.125 801.667969 1449.484375 801.667969 1445.519531 C 801.667969 1441.554688 802.988281 1437.589844 804.308594 1434.949219 C 805.628906 1425.699219 809.59375 1416.449219 812.234375 1407.203125 C 817.515625 1388.703125 830.722656 1368.882812 843.933594 1349.0625 C 851.855469 1338.492188 858.460938 1326.601562 865.0625 1316.03125 C 869.027344 1310.746094 871.667969 1304.140625 875.628906 1298.855469 C 878.269531 1294.890625 882.234375 1289.605469 884.875 1285.640625 C 890.15625 1277.714844 896.761719 1271.105469 903.363281 1264.5 C 909.96875 1257.894531 915.25 1249.964844 920.535156 1243.359375 C 927.136719 1235.429688 932.421875 1228.824219 937.703125 1220.898438 C 942.988281 1214.289062 949.589844 1206.363281 956.195312 1199.757812 C 969.402344 1185.222656 981.289062 1170.6875 994.496094 1154.832031 C 1006.382812 1138.976562 1018.269531 1123.121094 1028.832031 1107.265625 C 1040.71875 1091.410156 1051.285156 1074.230469 1061.851562 1057.054688 C 1072.417969 1039.878906 1082.984375 1022.699219 1094.871094 1005.523438 C 1105.4375 989.667969 1114.679688 972.492188 1121.285156 955.3125 C 1130.53125 935.492188 1138.453125 915.675781 1145.058594 894.535156 C 1156.945312 854.894531 1167.511719 813.933594 1171.472656 772.972656 C 1172.792969 762.402344 1172.792969 751.832031 1174.113281 739.941406 C 1174.113281 729.371094 1174.113281 720.121094 1172.792969 709.550781 Z M 952.230469 462.464844 C 953.550781 469.070312 956.195312 474.355469 958.835938 480.964844 C 962.796875 492.855469 968.078125 506.066406 972.042969 517.960938 C 976.003906 531.171875 979.964844 545.707031 983.929688 558.921875 C 986.570312 569.492188 990.53125 580.0625 994.496094 589.308594 C 998.457031 601.203125 1002.417969 613.09375 1005.058594 624.984375 C 1006.382812 634.234375 1009.023438 643.484375 1009.023438 652.734375 C 1010.34375 661.984375 1010.34375 672.554688 1011.664062 681.800781 C 1011.664062 692.371094 1012.984375 701.621094 1012.984375 712.191406 C 1012.984375 722.761719 1012.984375 733.332031 1011.664062 742.582031 C 1009.023438 769.007812 1003.738281 794.113281 998.457031 819.21875 C 995.816406 832.433594 991.851562 846.964844 987.890625 860.179688 C 983.929688 872.070312 981.289062 883.964844 977.324219 895.855469 C 972.042969 910.390625 966.757812 924.921875 960.15625 939.457031 C 954.871094 953.992188 949.589844 969.847656 942.984375 984.382812 C 940.34375 990.988281 936.382812 998.917969 933.742188 1005.523438 C 931.101562 1012.128906 927.136719 1020.058594 923.175781 1026.664062 C 916.570312 1041.199219 908.648438 1055.734375 900.722656 1070.269531 C 896.761719 1076.875 894.121094 1084.800781 890.15625 1091.410156 C 886.195312 1099.335938 882.234375 1105.941406 878.269531 1112.550781 C 874.308594 1119.15625 870.347656 1125.761719 866.382812 1132.371094 C 862.421875 1138.976562 858.460938 1146.902344 855.816406 1154.832031 C 842.609375 1183.898438 829.402344 1214.289062 816.195312 1243.359375 C 813.554688 1249.964844 809.59375 1256.574219 806.953125 1264.5 C 802.988281 1272.429688 801.667969 1281.675781 799.027344 1289.605469 C 795.066406 1304.140625 792.421875 1318.671875 788.460938 1333.207031 C 784.5 1347.742188 780.535156 1360.957031 777.894531 1375.488281 C 776.574219 1382.097656 775.253906 1387.382812 775.253906 1393.988281 C 773.933594 1384.738281 773.933594 1375.488281 772.613281 1366.242188 C 771.292969 1351.707031 768.648438 1337.171875 766.007812 1323.960938 C 764.6875 1313.386719 762.046875 1302.816406 759.40625 1292.246094 C 756.765625 1283 755.441406 1273.75 752.800781 1264.5 C 750.160156 1251.285156 747.519531 1238.074219 744.878906 1224.859375 C 743.554688 1216.933594 742.234375 1210.328125 740.914062 1202.398438 C 739.59375 1195.792969 739.59375 1189.1875 738.273438 1182.578125 C 736.953125 1168.042969 735.632812 1154.832031 734.3125 1140.296875 C 732.992188 1125.761719 732.992188 1111.226562 731.671875 1096.695312 C 731.671875 1084.800781 731.671875 1074.230469 732.992188 1062.339844 C 734.3125 1053.089844 734.3125 1043.839844 735.632812 1035.914062 C 736.953125 1026.664062 738.273438 1016.09375 740.914062 1006.84375 C 743.554688 997.59375 744.878906 987.023438 747.519531 977.777344 C 750.160156 968.527344 751.480469 960.597656 754.121094 951.351562 C 755.441406 947.386719 756.761719 943.421875 758.085938 939.457031 C 759.40625 935.492188 762.046875 930.207031 764.6875 926.246094 C 768.648438 916.996094 771.292969 909.066406 775.253906 899.820312 C 781.859375 881.320312 789.78125 862.820312 796.386719 844.324219 L 796.386719 843.003906 C 796.386719 843.003906 796.386719 844.324219 796.386719 844.324219 C 797.707031 841.679688 797.707031 840.359375 799.027344 837.71875 C 800.347656 835.074219 801.667969 831.109375 802.988281 828.46875 C 808.273438 815.253906 812.234375 802.042969 816.195312 788.828125 C 820.160156 774.292969 822.800781 761.082031 825.441406 746.546875 C 828.082031 732.011719 830.722656 717.476562 832.046875 702.945312 C 834.6875 688.410156 836.007812 673.875 838.648438 659.339844 C 839.96875 644.804688 841.289062 630.269531 841.289062 615.738281 C 841.289062 601.203125 841.289062 586.667969 841.289062 572.132812 C 841.289062 557.597656 841.289062 543.066406 839.96875 528.53125 C 838.648438 513.996094 838.648438 498.140625 838.648438 483.605469 C 838.648438 465.109375 838.648438 445.289062 838.648438 426.789062 C 838.648438 426.789062 838.648438 428.109375 838.648438 428.109375 C 838.648438 422.824219 839.96875 416.21875 839.96875 410.933594 C 841.289062 397.722656 842.609375 384.507812 843.933594 369.972656 C 845.253906 355.4375 849.214844 340.90625 851.855469 327.691406 C 858.460938 299.945312 865.0625 270.875 871.667969 243.128906 C 874.308594 235.199219 875.628906 227.273438 878.269531 219.34375 C 878.269531 219.34375 878.269531 219.34375 878.269531 218.023438 C 878.269531 218.023438 878.269531 218.023438 878.269531 216.703125 C 880.910156 207.453125 884.875 199.523438 890.15625 191.597656 C 895.441406 182.347656 900.722656 174.417969 906.003906 165.171875 C 911.289062 155.921875 916.570312 146.671875 921.855469 137.421875 C 921.855469 136.101562 923.175781 134.78125 923.175781 134.78125 C 923.175781 136.101562 923.175781 138.742188 923.175781 140.066406 C 923.175781 146.671875 921.855469 154.601562 921.855469 161.207031 C 921.855469 165.171875 921.855469 170.457031 920.535156 174.417969 C 920.535156 173.097656 920.535156 173.097656 920.535156 171.777344 C 919.214844 187.632812 919.214844 203.488281 919.214844 219.34375 C 919.214844 236.519531 919.214844 252.375 920.535156 269.554688 C 921.855469 299.945312 923.175781 330.335938 928.457031 360.722656 C 931.097656 373.9375 933.742188 387.148438 936.382812 401.683594 C 939.023438 416.21875 942.984375 429.433594 945.628906 443.964844 C 949.589844 447.929688 950.910156 455.859375 952.230469 462.464844 Z M 85.835938 359.402344 C 83.191406 343.546875 80.550781 329.011719 79.230469 313.15625 C 79.230469 310.515625 79.230469 307.871094 79.230469 305.230469 C 79.230469 306.550781 80.550781 307.871094 80.550781 309.191406 C 87.15625 322.40625 93.757812 336.941406 99.042969 350.152344 C 105.644531 364.6875 113.570312 379.222656 121.496094 393.757812 C 125.457031 400.363281 129.417969 406.96875 133.382812 413.578125 C 137.34375 420.183594 141.304688 425.46875 145.265625 432.074219 C 154.511719 443.964844 165.078125 457.179688 174.324219 470.394531 C 183.570312 482.285156 192.8125 495.496094 202.058594 507.390625 C 211.304688 520.601562 219.226562 533.816406 227.152344 548.351562 C 231.113281 554.957031 235.078125 561.5625 239.039062 568.167969 C 243 574.777344 245.644531 581.382812 249.605469 587.988281 C 253.566406 595.917969 257.527344 605.167969 261.492188 613.09375 C 261.492188 611.773438 260.171875 611.773438 260.171875 610.453125 C 264.132812 617.058594 266.773438 623.664062 269.414062 631.59375 C 272.058594 639.519531 276.019531 646.125 278.660156 654.054688 C 283.945312 667.269531 289.226562 681.800781 294.507812 696.335938 C 297.152344 702.941406 299.792969 709.550781 302.433594 716.15625 C 305.074219 724.085938 307.71875 730.691406 309.039062 738.617188 C 313 751.832031 316.960938 766.367188 319.601562 780.902344 C 319.601562 779.578125 319.601562 778.257812 318.28125 776.9375 C 319.601562 786.1875 322.246094 794.113281 323.566406 803.363281 C 324.886719 809.96875 326.207031 817.898438 328.847656 824.503906 C 332.8125 839.039062 338.09375 853.574219 340.734375 868.105469 C 344.699219 882.640625 347.339844 897.175781 351.300781 911.710938 C 355.261719 926.246094 360.546875 940.777344 363.1875 955.3125 C 364.507812 961.921875 367.148438 968.527344 368.46875 976.453125 C 371.113281 983.0625 373.753906 989.667969 375.074219 997.59375 C 380.355469 1012.128906 384.320312 1026.664062 389.601562 1039.878906 C 394.886719 1051.769531 400.167969 1064.980469 405.449219 1076.875 C 408.09375 1082.160156 409.414062 1088.765625 412.054688 1094.050781 C 414.695312 1100.65625 417.335938 1108.585938 421.300781 1115.191406 C 426.582031 1127.082031 431.867188 1137.652344 438.46875 1148.226562 C 445.074219 1158.796875 451.675781 1169.367188 459.601562 1179.9375 C 466.203125 1187.863281 472.808594 1197.113281 479.410156 1205.042969 C 487.335938 1214.289062 493.9375 1223.539062 501.863281 1232.789062 C 501.863281 1232.789062 500.542969 1231.46875 500.542969 1231.46875 C 501.863281 1232.789062 501.863281 1232.789062 503.183594 1234.109375 C 503.183594 1234.109375 504.503906 1235.429688 504.503906 1235.429688 C 505.824219 1236.753906 505.824219 1236.753906 507.148438 1238.074219 C 509.789062 1240.714844 511.109375 1243.359375 513.75 1246 C 515.070312 1247.324219 515.070312 1247.324219 516.390625 1248.644531 C 525.636719 1259.214844 536.203125 1268.464844 545.449219 1279.035156 C 556.011719 1289.605469 566.578125 1300.175781 578.464844 1309.425781 C 585.070312 1314.710938 590.351562 1319.996094 595.636719 1325.28125 C 600.917969 1330.566406 607.523438 1334.53125 612.804688 1339.816406 C 618.085938 1343.777344 623.371094 1347.742188 628.652344 1351.707031 C 633.9375 1356.992188 640.539062 1360.957031 645.824219 1366.242188 C 652.425781 1371.527344 659.03125 1378.132812 664.3125 1384.738281 C 666.953125 1388.703125 670.917969 1391.347656 673.558594 1395.308594 C 677.519531 1400.59375 681.484375 1404.558594 684.125 1409.84375 C 688.085938 1415.128906 692.046875 1420.414062 696.011719 1425.699219 C 684.125 1420.414062 672.238281 1413.808594 659.03125 1408.523438 C 645.824219 1401.917969 631.296875 1396.632812 616.765625 1390.023438 C 611.484375 1387.382812 604.878906 1384.738281 599.597656 1382.097656 C 592.992188 1378.132812 586.390625 1375.488281 579.785156 1371.527344 C 566.578125 1364.917969 550.730469 1360.957031 537.523438 1354.347656 C 529.597656 1350.386719 521.675781 1346.421875 513.75 1343.777344 C 505.824219 1341.136719 499.222656 1337.171875 492.617188 1333.207031 C 476.769531 1321.316406 460.921875 1309.425781 446.394531 1296.210938 C 430.542969 1283 414.695312 1268.464844 401.488281 1253.929688 C 394.886719 1246 388.28125 1236.753906 381.675781 1228.824219 C 375.074219 1219.574219 368.46875 1210.324219 361.867188 1201.078125 C 349.980469 1183.898438 339.414062 1164.082031 330.167969 1145.582031 C 322.246094 1128.40625 315.640625 1111.226562 309.039062 1094.050781 C 306.394531 1086.121094 302.433594 1078.195312 299.792969 1068.945312 C 297.152344 1061.019531 295.832031 1054.410156 294.507812 1046.484375 C 291.867188 1031.949219 290.546875 1016.09375 289.226562 1001.558594 C 287.90625 985.703125 286.585938 968.527344 285.265625 952.671875 C 285.265625 944.742188 285.265625 936.816406 283.945312 927.566406 C 283.945312 919.636719 282.625 911.710938 281.300781 902.460938 C 279.980469 886.605469 278.660156 869.429688 276.019531 853.574219 C 270.738281 823.183594 266.773438 792.792969 257.53125 762.402344 C 253.566406 749.1875 248.285156 735.976562 243 722.761719 C 237.71875 709.550781 229.792969 696.335938 223.191406 683.125 C 220.550781 676.515625 216.585938 669.910156 215.265625 663.304688 C 212.625 655.375 208.664062 648.769531 206.019531 642.164062 C 199.417969 627.628906 192.8125 614.414062 186.210938 599.878906 C 179.605469 585.347656 173.003906 570.8125 166.398438 556.277344 C 159.796875 541.742188 154.511719 527.207031 147.910156 513.996094 C 139.984375 496.820312 132.058594 479.640625 122.816406 462.464844 C 114.890625 446.609375 108.289062 430.753906 100.363281 414.898438 C 96.402344 393.757812 89.796875 377.902344 85.835938 359.402344 Z M 250.925781 589.308594 C 250.925781 590.632812 250.925781 590.632812 250.925781 589.308594 Z M 694.691406 1327.921875 C 689.40625 1318.675781 682.804688 1310.746094 677.519531 1302.816406 C 672.238281 1293.570312 666.953125 1284.320312 661.671875 1275.070312 C 656.386719 1265.820312 652.425781 1257.894531 647.144531 1248.644531 C 635.257812 1224.859375 624.691406 1201.078125 614.125 1175.972656 C 611.484375 1170.6875 608.84375 1164.082031 606.199219 1158.796875 C 603.558594 1153.511719 600.917969 1148.226562 599.597656 1141.617188 C 595.636719 1128.40625 592.992188 1115.191406 590.351562 1103.300781 C 590.351562 1101.980469 589.03125 1099.335938 589.03125 1098.015625 C 586.390625 1087.445312 585.070312 1076.875 582.429688 1067.625 C 579.785156 1055.734375 578.464844 1045.164062 578.464844 1033.269531 C 578.464844 1021.378906 578.464844 1009.488281 578.464844 997.59375 C 578.464844 993.632812 578.464844 990.988281 579.785156 987.023438 C 579.785156 987.023438 579.785156 988.347656 579.785156 988.347656 C 579.785156 983.0625 579.785156 977.777344 581.105469 972.492188 C 581.105469 969.847656 581.105469 967.207031 581.105469 964.5625 C 581.105469 963.242188 581.105469 963.242188 581.105469 961.921875 C 581.105469 960.597656 581.105469 960.597656 581.105469 959.277344 C 581.105469 955.3125 581.105469 951.347656 582.429688 947.386719 C 582.429688 944.742188 582.429688 940.777344 583.75 938.136719 C 583.75 934.171875 585.070312 930.207031 586.390625 924.921875 C 587.710938 919.636719 589.03125 914.351562 590.351562 910.390625 C 592.992188 902.460938 596.957031 894.535156 600.917969 887.925781 C 604.878906 880 610.164062 872.070312 614.125 864.144531 C 620.730469 854.894531 627.332031 845.644531 633.9375 836.394531 C 640.539062 827.148438 645.824219 816.574219 652.425781 807.328125 C 661.671875 792.792969 673.558594 779.578125 681.480469 765.046875 C 685.445312 758.4375 689.40625 750.511719 692.046875 742.582031 C 696.011719 734.65625 698.652344 726.726562 702.613281 718.800781 C 706.578125 709.550781 710.539062 698.980469 711.859375 688.410156 C 713.179688 680.480469 715.820312 671.230469 717.140625 663.304688 C 719.785156 647.449219 722.425781 630.269531 725.066406 614.414062 C 730.347656 580.0625 731.671875 544.386719 735.632812 508.710938 C 738.273438 491.535156 740.914062 474.355469 743.554688 455.859375 C 746.199219 438.679688 748.839844 422.824219 751.480469 405.648438 C 754.121094 393.757812 756.765625 381.863281 760.726562 369.972656 C 763.367188 359.402344 767.328125 347.511719 769.972656 336.941406 C 772.613281 329.011719 776.574219 319.761719 780.535156 311.835938 C 784.5 302.585938 789.78125 294.660156 793.746094 285.410156 C 801.667969 269.554688 810.914062 253.699219 821.480469 237.84375 C 829.402344 225.949219 838.648438 214.058594 847.894531 202.167969 C 853.175781 196.882812 857.140625 190.273438 862.421875 184.988281 C 867.703125 179.703125 871.667969 174.417969 875.628906 169.132812 C 880.910156 163.847656 884.875 157.242188 890.15625 151.957031 C 891.476562 150.636719 892.796875 147.992188 895.441406 146.671875 C 892.796875 150.636719 890.15625 155.921875 887.515625 159.882812 C 883.554688 166.492188 879.589844 171.777344 876.949219 178.382812 C 874.308594 183.667969 870.347656 190.273438 867.703125 195.558594 C 866.382812 198.203125 865.0625 202.167969 863.742188 206.128906 C 863.742188 207.453125 862.421875 208.773438 862.421875 210.09375 C 862.421875 211.414062 861.101562 212.738281 861.101562 214.058594 C 861.101562 215.378906 859.78125 218.023438 859.78125 219.34375 C 858.460938 225.949219 855.816406 232.558594 854.496094 239.164062 C 847.894531 266.910156 841.289062 295.980469 834.6875 325.046875 C 830.722656 339.582031 829.402344 352.796875 826.761719 367.332031 C 825.441406 381.863281 822.800781 396.398438 822.800781 410.933594 C 822.800781 412.253906 822.800781 413.578125 822.800781 414.898438 C 821.480469 429.433594 821.480469 445.289062 821.480469 459.820312 C 821.480469 474.355469 821.480469 488.890625 822.800781 503.425781 C 822.800781 517.960938 824.121094 533.816406 824.121094 548.351562 C 824.121094 556.277344 824.121094 562.882812 824.121094 570.8125 C 824.121094 577.417969 824.121094 585.347656 824.121094 591.953125 C 824.121094 605.167969 824.121094 618.378906 822.800781 631.59375 C 821.480469 644.804688 820.160156 658.019531 818.835938 671.230469 C 817.515625 684.445312 814.875 697.65625 812.234375 710.871094 C 808.273438 737.296875 804.308594 763.722656 795.066406 788.828125 C 789.78125 802.042969 785.820312 815.253906 780.535156 828.46875 C 775.253906 841.679688 769.972656 856.214844 764.6875 869.429688 C 759.40625 882.640625 754.121094 895.855469 747.519531 909.066406 C 742.234375 922.28125 735.632812 934.171875 730.347656 946.0625 C 725.066406 960.597656 721.105469 975.132812 717.140625 989.667969 C 713.179688 1004.203125 709.21875 1017.414062 706.574219 1031.949219 C 703.933594 1045.164062 701.292969 1059.695312 699.972656 1074.230469 C 698.652344 1090.085938 697.332031 1105.941406 698.652344 1121.796875 C 698.652344 1136.332031 699.972656 1150.867188 701.292969 1165.402344 C 702.613281 1178.613281 705.253906 1193.148438 707.898438 1206.363281 C 710.539062 1222.21875 714.5 1236.753906 718.460938 1251.285156 C 721.105469 1265.820312 726.386719 1280.355469 730.347656 1293.570312 C 732.992188 1302.816406 735.632812 1312.066406 738.273438 1321.316406 C 740.914062 1330.566406 742.234375 1338.492188 743.554688 1347.742188 C 746.199219 1359.632812 747.519531 1370.203125 748.839844 1382.097656 C 750.160156 1388.703125 750.160156 1393.988281 751.480469 1400.59375 C 751.480469 1407.203125 752.800781 1412.488281 752.800781 1419.09375 C 754.121094 1430.984375 754.121094 1444.199219 755.441406 1456.089844 C 754.121094 1453.449219 752.800781 1449.484375 751.480469 1446.839844 C 750.160156 1441.554688 747.519531 1436.269531 744.878906 1432.304688 C 742.234375 1427.019531 740.914062 1421.734375 738.273438 1416.449219 C 734.3125 1405.878906 731.667969 1396.632812 726.386719 1386.0625 C 722.425781 1375.488281 715.820312 1366.242188 710.539062 1355.671875 C 705.253906 1346.421875 699.972656 1337.171875 694.691406 1327.921875 Z M 589.03125 524.566406 C 592.992188 506.066406 596.957031 486.25 602.238281 467.75 C 607.523438 446.609375 612.804688 426.789062 620.730469 406.96875 C 629.972656 384.507812 640.539062 363.367188 652.425781 342.226562 C 655.066406 336.941406 657.710938 331.65625 661.671875 326.371094 C 664.3125 321.085938 668.273438 317.121094 670.917969 311.835938 C 677.519531 302.585938 684.125 292.015625 692.046875 282.765625 C 699.972656 273.515625 706.574219 264.269531 714.5 255.019531 C 722.425781 245.769531 732.992188 237.84375 742.234375 228.59375 C 746.199219 224.628906 751.480469 220.664062 755.441406 216.699219 C 760.726562 212.738281 764.6875 208.773438 768.648438 204.808594 C 777.894531 196.882812 787.140625 188.953125 797.707031 181.027344 C 810.914062 171.777344 824.121094 162.527344 837.328125 153.277344 C 850.535156 144.027344 862.421875 134.78125 875.628906 125.53125 C 882.234375 121.566406 890.15625 117.601562 896.761719 113.640625 C 898.082031 112.316406 900.722656 110.996094 902.042969 110.996094 C 894.121094 118.925781 886.195312 126.851562 878.269531 134.78125 C 867.703125 147.992188 857.140625 159.882812 846.574219 173.097656 C 841.289062 178.382812 836.007812 184.988281 830.722656 190.273438 C 825.441406 196.882812 820.160156 203.488281 814.875 210.09375 C 804.308594 223.308594 795.066406 237.84375 785.820312 252.375 C 776.574219 266.910156 767.328125 282.765625 759.40625 297.300781 C 758.085938 301.265625 755.441406 303.90625 754.121094 307.871094 C 751.480469 311.835938 750.160156 315.800781 747.519531 321.085938 C 743.554688 329.011719 740.914062 336.941406 738.273438 344.867188 C 735.632812 352.796875 731.671875 362.046875 729.027344 369.972656 C 725.066406 379.222656 722.425781 389.792969 719.785156 399.042969 C 714.5 414.898438 709.21875 432.074219 705.253906 447.929688 C 701.292969 465.105469 697.332031 483.605469 693.371094 500.78125 C 689.40625 517.960938 686.765625 535.136719 685.445312 552.3125 C 682.804688 569.492188 681.484375 586.667969 677.519531 603.84375 C 674.878906 619.699219 670.917969 636.878906 668.277344 652.734375 C 665.632812 664.625 662.992188 677.839844 660.351562 689.730469 C 655.066406 705.585938 647.144531 720.121094 641.859375 734.65625 C 639.21875 742.582031 635.257812 749.1875 631.296875 757.117188 C 627.332031 765.042969 623.371094 772.972656 619.410156 780.902344 C 616.765625 787.507812 612.804688 795.433594 610.164062 802.042969 C 608.84375 806.003906 607.523438 809.96875 606.203125 813.933594 C 604.878906 817.898438 602.238281 821.859375 600.917969 825.824219 C 594.316406 840.359375 586.390625 853.574219 581.105469 868.105469 C 574.503906 883.960938 567.898438 899.820312 565.257812 915.675781 C 563.9375 923.601562 562.617188 931.53125 562.617188 939.457031 C 562.617188 947.386719 562.617188 956.636719 562.617188 964.5625 C 562.617188 972.492188 562.617188 979.097656 561.296875 987.023438 C 561.296875 994.953125 559.976562 1002.878906 561.296875 1009.488281 C 561.296875 1026.664062 562.617188 1042.519531 565.257812 1059.695312 C 566.578125 1067.625 569.222656 1075.554688 570.542969 1083.480469 C 571.863281 1087.445312 571.863281 1090.085938 573.183594 1094.050781 L 573.183594 1091.410156 C 577.144531 1108.585938 579.785156 1124.441406 583.75 1141.617188 C 585.070312 1148.226562 587.710938 1156.152344 591.671875 1162.757812 C 594.316406 1170.6875 598.277344 1177.292969 600.917969 1185.222656 C 607.523438 1199.757812 614.125 1215.613281 620.730469 1230.144531 C 624.691406 1238.074219 627.332031 1244.679688 631.296875 1252.609375 C 635.257812 1260.535156 639.21875 1268.464844 643.179688 1276.390625 C 649.785156 1289.605469 657.710938 1302.816406 664.3125 1314.710938 C 666.953125 1319.996094 670.917969 1325.28125 674.878906 1330.566406 C 678.839844 1337.171875 682.804688 1343.777344 686.765625 1350.386719 C 692.046875 1362.277344 697.332031 1374.167969 703.933594 1384.738281 C 705.253906 1386.0625 705.253906 1387.382812 706.578125 1390.023438 C 706.578125 1390.023438 705.253906 1388.703125 705.253906 1388.703125 C 699.972656 1382.097656 696.011719 1376.8125 690.726562 1370.207031 C 690.726562 1370.207031 690.726562 1370.207031 689.40625 1368.882812 C 678.839844 1354.347656 666.953125 1341.136719 653.746094 1326.601562 C 640.539062 1312.066406 627.332031 1298.855469 614.125 1284.320312 C 600.917969 1271.105469 589.03125 1257.894531 575.824219 1246.003906 C 569.222656 1239.394531 562.617188 1232.789062 556.015625 1226.183594 C 549.410156 1219.574219 544.128906 1214.289062 538.84375 1206.363281 C 536.203125 1203.71875 534.882812 1201.078125 532.242188 1198.433594 C 524.316406 1187.863281 516.390625 1175.972656 509.789062 1164.082031 C 503.183594 1152.1875 496.582031 1138.976562 491.296875 1125.761719 C 480.730469 1098.015625 471.488281 1070.269531 467.523438 1041.199219 C 464.882812 1018.738281 462.242188 997.59375 464.882812 975.132812 C 468.847656 951.351562 475.449219 927.566406 484.695312 905.105469 C 488.65625 897.175781 491.296875 890.570312 495.261719 882.640625 C 499.222656 874.714844 503.183594 865.464844 507.148438 857.535156 C 515.070312 840.359375 524.316406 824.503906 532.242188 806.003906 C 540.164062 787.507812 546.769531 770.332031 552.050781 750.511719 C 557.335938 732.011719 559.976562 712.191406 562.617188 692.371094 C 566.578125 672.554688 569.222656 654.054688 573.183594 634.234375 C 573.183594 632.914062 573.183594 632.914062 573.183594 632.914062 C 575.824219 628.949219 575.824219 624.984375 575.824219 619.699219 C 578.464844 605.167969 581.109375 591.953125 585.070312 577.417969 C 582.429688 560.242188 585.070312 541.742188 589.03125 524.566406 Z M 114.890625 310.515625 C 122.816406 315.800781 130.738281 319.761719 138.664062 323.726562 C 146.589844 327.691406 155.832031 332.976562 165.078125 335.617188 C 174.324219 339.582031 182.246094 342.226562 191.492188 346.191406 C 207.339844 352.796875 223.191406 359.402344 240.359375 363.367188 C 253.566406 367.332031 265.453125 371.292969 278.660156 375.257812 C 290.546875 379.222656 302.433594 383.1875 313 387.148438 C 326.207031 392.433594 338.09375 400.363281 349.980469 406.96875 C 363.1875 413.578125 375.074219 421.503906 386.960938 429.433594 C 394.882812 436.039062 402.808594 441.324219 410.734375 447.929688 C 418.65625 454.535156 427.902344 461.144531 435.828125 469.070312 C 450.355469 484.925781 464.882812 500.78125 478.089844 517.960938 C 483.375 525.886719 489.976562 533.816406 493.9375 541.742188 C 499.222656 552.3125 505.824219 561.5625 509.789062 572.132812 C 508.46875 570.8125 508.46875 568.167969 507.148438 566.847656 C 508.46875 569.492188 509.789062 572.132812 511.109375 574.777344 C 515.070312 585.347656 519.03125 594.597656 522.996094 605.167969 C 526.957031 613.09375 532.242188 622.34375 536.203125 630.269531 C 536.203125 630.269531 536.203125 630.269531 537.523438 631.59375 C 532.242188 654.054688 528.277344 676.515625 522.996094 698.980469 C 521.675781 705.585938 520.355469 712.191406 519.03125 717.476562 C 517.710938 724.085938 516.390625 730.691406 515.070312 735.976562 C 512.429688 746.546875 508.46875 758.4375 503.183594 769.007812 C 495.261719 786.1875 487.335938 802.042969 478.089844 819.21875 C 474.128906 827.148438 468.84375 835.074219 464.882812 843.003906 C 460.921875 852.25 456.957031 860.179688 452.996094 869.429688 C 443.75 886.605469 437.148438 905.105469 431.863281 923.601562 C 429.222656 931.53125 427.902344 940.777344 426.582031 948.707031 C 425.261719 957.957031 422.621094 968.527344 422.621094 979.097656 C 422.621094 998.917969 425.261719 1018.738281 427.902344 1038.554688 C 429.222656 1047.804688 431.863281 1057.054688 433.1875 1067.625 C 435.828125 1075.554688 438.46875 1084.800781 441.109375 1092.730469 C 443.75 1101.980469 447.714844 1109.90625 450.355469 1119.15625 C 452.996094 1124.441406 454.316406 1129.726562 456.957031 1135.011719 C 454.316406 1129.726562 451.675781 1124.441406 449.035156 1120.476562 C 442.429688 1108.585938 437.148438 1095.371094 431.863281 1082.160156 C 426.582031 1070.269531 422.621094 1058.375 417.335938 1046.484375 C 414.695312 1039.878906 412.054688 1033.269531 409.414062 1027.984375 C 406.769531 1021.378906 404.128906 1014.773438 402.808594 1008.167969 C 400.167969 1000.238281 397.527344 993.632812 394.886719 985.703125 C 392.242188 979.097656 389.601562 972.492188 388.28125 965.882812 C 384.320312 953.992188 381.675781 940.777344 377.714844 928.886719 C 373.753906 916.996094 371.113281 905.105469 368.46875 893.210938 C 365.828125 881.320312 364.507812 868.105469 361.867188 856.214844 C 359.226562 843.003906 356.582031 831.109375 353.941406 817.898438 C 348.660156 788.828125 346.019531 758.4375 340.734375 729.371094 C 338.09375 713.515625 334.132812 697.65625 328.847656 681.800781 C 326.207031 673.875 324.886719 667.269531 322.246094 659.339844 C 319.601562 652.734375 318.28125 644.804688 315.640625 638.199219 C 310.359375 622.34375 305.074219 607.808594 297.152344 593.273438 C 293.1875 585.347656 289.226562 576.097656 285.265625 568.167969 C 281.300781 561.5625 277.339844 553.636719 273.378906 547.027344 C 269.414062 540.421875 265.453125 533.816406 261.492188 527.210938 C 257.527344 520.601562 253.566406 513.996094 248.285156 507.390625 C 239.039062 494.175781 229.792969 480.964844 219.226562 469.070312 C 200.738281 447.929688 182.246094 426.789062 163.757812 406.96875 C 157.152344 400.363281 151.871094 392.433594 146.589844 384.507812 C 141.304688 376.578125 136.023438 367.332031 130.738281 359.402344 C 120.171875 342.226562 110.929688 323.726562 101.683594 306.550781 C 101.683594 305.230469 100.363281 303.90625 100.363281 302.585938 C 100.363281 302.585938 100.363281 301.265625 99.042969 301.265625 C 100.363281 302.585938 101.683594 302.585938 101.683594 303.90625 C 105.644531 305.230469 110.929688 307.871094 114.890625 310.515625 Z M 143.945312 848.289062 C 143.945312 849.609375 143.945312 849.609375 143.945312 850.929688 C 145.265625 849.609375 145.265625 848.289062 143.945312 848.289062 Z M 603.558594 1409.84375 C 587.710938 1404.558594 570.542969 1400.59375 553.371094 1396.632812 C 545.449219 1393.988281 536.203125 1392.667969 528.277344 1390.023438 C 519.03125 1387.382812 509.789062 1387.382812 499.222656 1386.0625 C 491.296875 1384.738281 483.375 1384.738281 475.449219 1383.417969 C 466.203125 1382.097656 456.957031 1380.777344 449.035156 1376.8125 C 439.789062 1374.167969 430.542969 1370.203125 421.300781 1366.242188 C 413.375 1362.277344 406.769531 1359.632812 398.847656 1355.671875 C 390.921875 1351.707031 384.320312 1346.421875 377.714844 1341.136719 C 371.113281 1335.851562 363.1875 1331.886719 356.582031 1326.601562 C 349.980469 1321.316406 343.375 1317.351562 336.773438 1312.066406 C 328.847656 1305.460938 320.925781 1297.53125 313 1290.925781 C 309.039062 1286.960938 305.074219 1283 301.113281 1279.035156 C 297.152344 1275.070312 294.507812 1271.105469 291.867188 1267.144531 C 283.945312 1255.25 274.699219 1244.679688 268.09375 1231.46875 C 260.171875 1219.574219 253.566406 1206.363281 246.964844 1193.148438 C 240.359375 1179.9375 233.757812 1166.722656 227.152344 1153.511719 C 220.550781 1141.617188 215.265625 1129.726562 209.984375 1116.511719 C 206.019531 1105.941406 202.058594 1094.050781 198.097656 1082.160156 C 194.132812 1070.265625 191.492188 1057.054688 190.171875 1045.164062 C 187.53125 1027.984375 187.53125 1009.488281 186.210938 992.308594 C 186.210938 973.8125 186.210938 956.632812 186.210938 938.136719 C 186.210938 919.636719 186.210938 899.820312 186.210938 881.320312 C 184.890625 861.5 182.246094 841.679688 178.285156 823.183594 C 174.324219 806.003906 170.363281 788.828125 166.398438 770.328125 C 162.4375 753.152344 157.152344 735.976562 151.871094 718.796875 C 149.230469 709.550781 146.589844 700.300781 142.625 691.050781 C 139.984375 683.125 137.34375 675.195312 133.382812 667.269531 C 126.777344 650.089844 118.851562 632.914062 109.609375 617.058594 C 103.003906 603.84375 95.078125 590.632812 87.15625 577.417969 C 80.550781 565.527344 73.949219 552.3125 68.664062 539.101562 C 63.382812 525.886719 58.101562 511.351562 54.136719 496.820312 C 48.855469 480.960938 44.890625 465.105469 42.25 449.25 C 40.929688 434.71875 40.929688 418.863281 39.609375 404.328125 C 39.609375 396.398438 39.609375 388.472656 39.609375 380.542969 C 39.609375 371.292969 40.929688 363.367188 42.25 355.4375 C 42.25 356.757812 42.25 358.082031 42.25 358.082031 C 42.25 355.4375 42.25 354.117188 43.570312 351.472656 C 43.570312 351.472656 43.570312 352.796875 43.570312 352.796875 C 46.214844 334.296875 50.175781 314.476562 54.136719 295.980469 C 55.457031 293.335938 55.457031 289.371094 56.777344 286.730469 C 56.777344 288.050781 56.777344 288.050781 56.777344 289.371094 C 56.777344 297.300781 56.777344 305.230469 56.777344 311.835938 C 56.777344 327.691406 59.421875 343.546875 63.382812 359.402344 C 64.703125 367.332031 67.34375 375.257812 69.984375 384.507812 C 72.628906 391.113281 75.269531 399.042969 77.910156 405.648438 C 83.195312 420.183594 88.476562 434.71875 95.078125 447.929688 C 101.683594 461.144531 108.289062 475.675781 113.570312 488.890625 C 118.851562 502.105469 125.457031 513.996094 130.738281 527.207031 C 137.34375 541.742188 142.625 556.277344 149.230469 570.8125 C 155.832031 585.347656 161.117188 599.878906 167.71875 613.09375 C 174.324219 627.628906 180.925781 642.164062 187.53125 656.695312 C 194.132812 671.230469 198.097656 685.765625 204.699219 700.300781 C 211.304688 713.511719 217.90625 728.046875 221.871094 742.582031 C 227.152344 757.117188 231.113281 771.652344 235.078125 786.1875 C 235.078125 788.828125 236.398438 791.472656 236.398438 792.792969 C 237.71875 799.398438 239.039062 807.328125 240.359375 813.933594 C 241.679688 821.859375 243 829.789062 243 837.714844 C 245.644531 853.574219 246.964844 869.429688 248.285156 886.605469 C 249.605469 902.460938 250.925781 918.316406 250.925781 935.492188 C 250.925781 952.671875 250.925781 968.527344 252.246094 985.703125 C 252.246094 996.273438 253.566406 1006.84375 253.566406 1017.414062 C 253.566406 1022.699219 253.566406 1027.984375 254.886719 1034.59375 C 254.886719 1039.878906 256.207031 1045.164062 257.527344 1050.449219 C 260.171875 1062.339844 262.8125 1074.230469 266.773438 1086.121094 C 270.738281 1096.695312 276.019531 1105.941406 279.980469 1116.511719 C 286.585938 1131.046875 293.1875 1145.582031 301.113281 1158.796875 C 305.074219 1164.082031 309.039062 1170.6875 311.679688 1175.972656 C 315.640625 1182.578125 319.601562 1187.863281 323.566406 1194.46875 C 331.488281 1206.363281 339.414062 1216.933594 348.660156 1227.503906 C 357.90625 1239.394531 367.148438 1249.964844 377.714844 1261.855469 C 398.847656 1285.640625 422.621094 1305.460938 447.714844 1325.28125 C 459.601562 1334.53125 472.808594 1345.101562 484.695312 1353.027344 C 496.582031 1360.957031 511.109375 1366.242188 524.316406 1372.847656 C 530.917969 1375.488281 536.203125 1378.132812 542.804688 1380.773438 C 549.410156 1383.417969 556.011719 1386.058594 561.296875 1388.703125 C 574.503906 1393.988281 586.390625 1400.59375 598.277344 1407.203125 C 611.484375 1413.808594 624.691406 1419.09375 637.898438 1425.699219 C 641.859375 1427.019531 645.824219 1429.664062 649.785156 1430.984375 C 633.9375 1421.734375 619.410156 1415.128906 603.558594 1409.84375 Z M 1116 783.542969 C 1112.039062 811.289062 1106.757812 837.71875 1100.152344 864.144531 C 1096.191406 877.355469 1093.550781 891.890625 1088.265625 905.105469 C 1085.625 913.03125 1082.984375 919.636719 1080.34375 926.246094 C 1077.699219 931.53125 1076.378906 936.816406 1073.738281 942.101562 C 1069.777344 950.027344 1065.8125 959.277344 1061.851562 967.207031 C 1057.890625 976.453125 1052.605469 984.382812 1047.324219 993.632812 C 1042.039062 1001.558594 1036.757812 1010.808594 1032.796875 1018.734375 C 1027.511719 1027.984375 1023.550781 1035.914062 1018.269531 1045.164062 C 1009.023438 1062.339844 998.457031 1079.515625 986.570312 1095.371094 C 981.289062 1103.300781 976.003906 1109.90625 972.042969 1117.835938 C 966.757812 1125.761719 961.476562 1135.011719 954.871094 1142.941406 C 953.550781 1145.582031 950.910156 1148.226562 949.589844 1150.867188 C 937.703125 1165.402344 924.496094 1181.257812 913.929688 1195.792969 C 903.363281 1210.328125 891.476562 1226.183594 880.914062 1240.714844 C 869.027344 1255.25 857.140625 1269.785156 847.894531 1285.640625 C 838.648438 1302.816406 828.082031 1318.671875 817.515625 1335.851562 C 814.875 1339.816406 813.554688 1342.457031 810.914062 1346.421875 C 814.875 1331.886719 820.160156 1318.675781 824.121094 1304.140625 C 826.761719 1297.53125 829.402344 1290.925781 832.046875 1284.320312 C 836.007812 1276.390625 839.96875 1269.785156 843.933594 1261.859375 C 851.855469 1248.644531 858.460938 1234.109375 866.382812 1220.898438 C 874.308594 1206.363281 880.910156 1191.828125 888.835938 1177.292969 C 892.796875 1170.6875 895.441406 1162.757812 900.722656 1156.152344 C 902.042969 1152.1875 904.683594 1149.546875 907.328125 1145.582031 C 909.96875 1141.617188 911.289062 1138.976562 913.929688 1135.011719 C 917.890625 1128.40625 921.855469 1123.121094 925.816406 1116.511719 C 929.777344 1108.585938 933.742188 1101.980469 936.382812 1094.050781 C 942.984375 1079.515625 949.589844 1064.980469 956.195312 1050.449219 C 958.835938 1042.519531 962.796875 1035.914062 965.4375 1027.984375 C 968.078125 1020.058594 972.042969 1010.808594 974.683594 1002.878906 C 979.964844 988.347656 983.929688 972.492188 987.890625 957.957031 C 991.851562 943.421875 997.136719 928.886719 1001.097656 914.351562 C 1003.738281 906.425781 1005.058594 898.496094 1007.703125 890.570312 C 1010.34375 882.640625 1011.664062 874.714844 1012.984375 868.105469 C 1015.625 860.179688 1016.945312 852.25 1018.269531 844.324219 C 1019.589844 836.394531 1020.910156 828.46875 1022.230469 820.539062 C 1023.550781 812.613281 1024.871094 806.003906 1026.191406 798.078125 C 1027.511719 790.148438 1027.511719 782.222656 1028.832031 775.617188 C 1030.152344 769.007812 1030.152344 762.402344 1030.152344 755.796875 C 1030.152344 749.1875 1030.152344 743.902344 1030.152344 737.296875 C 1030.152344 725.40625 1030.152344 713.511719 1028.832031 701.621094 C 1027.511719 689.730469 1026.191406 679.160156 1024.871094 667.269531 C 1023.550781 655.375 1020.910156 643.484375 1019.589844 631.59375 C 1018.269531 624.984375 1016.945312 617.058594 1014.304688 610.453125 C 1012.984375 603.84375 1010.34375 595.917969 1007.703125 589.3125 C 1003.738281 577.417969 999.777344 565.527344 995.816406 553.636719 C 991.851562 540.421875 989.210938 525.886719 985.25 512.675781 C 981.289062 500.78125 977.324219 487.570312 973.363281 475.679688 C 966.757812 458.5 962.796875 441.324219 958.835938 424.148438 C 956.195312 414.898438 954.871094 405.648438 952.230469 397.71875 C 950.910156 388.472656 948.269531 379.222656 945.628906 371.292969 C 945.628906 368.652344 944.308594 367.332031 944.308594 364.6875 C 944.308594 366.007812 944.308594 366.007812 944.308594 367.332031 C 941.664062 352.796875 940.34375 336.941406 939.023438 322.40625 C 937.703125 314.476562 937.703125 307.871094 937.703125 299.945312 C 937.703125 292.015625 936.382812 285.410156 936.382812 277.480469 C 935.0625 261.625 933.742188 244.449219 933.742188 228.59375 C 933.742188 220.664062 933.742188 214.058594 933.742188 206.128906 C 933.742188 210.09375 935.0625 214.058594 936.382812 216.699219 C 937.703125 225.949219 941.664062 235.199219 944.308594 244.449219 C 946.949219 253.699219 950.910156 261.625 953.550781 270.875 C 957.515625 280.125 960.15625 289.375 964.117188 298.621094 C 968.078125 307.871094 972.042969 317.121094 977.324219 326.371094 C 981.289062 334.296875 986.570312 342.226562 990.53125 350.152344 C 995.816406 358.082031 1001.097656 366.007812 1005.058594 375.257812 C 1010.34375 383.1875 1014.304688 391.113281 1019.589844 399.042969 C 1028.832031 413.578125 1038.078125 428.109375 1046.003906 443.964844 C 1052.605469 457.179688 1059.210938 470.390625 1064.492188 483.605469 C 1067.132812 490.210938 1069.777344 495.496094 1072.417969 502.105469 C 1082.984375 528.53125 1090.90625 556.277344 1094.871094 585.347656 C 1096.191406 593.273438 1097.511719 601.203125 1098.832031 609.128906 C 1100.152344 617.058594 1101.472656 624.984375 1104.113281 632.914062 C 1106.757812 646.125 1109.398438 659.339844 1112.039062 672.554688 C 1113.359375 692.371094 1116 710.871094 1116 730.691406 C 1119.964844 745.226562 1118.644531 765.042969 1116 783.542969 Z M 1116 783.542969 "/>
</g>
<path style=" stroke:none;fill-rule:nonzero;fill:rgb(77.648926%,54.508972%,23.139954%);fill-opacity:1;" d="M 596.957031 404.328125 C 596.957031 403.003906 596.957031 403.003906 598.277344 403.003906 C 596.957031 403.003906 596.957031 404.328125 596.957031 404.328125 Z M 596.957031 404.328125 "/>
<path style=" stroke:none;fill-rule:nonzero;fill:rgb(77.648926%,54.508972%,23.139954%);fill-opacity:1;" d="M 379.035156 1259.214844 C 379.035156 1259.214844 377.714844 1257.894531 377.714844 1257.894531 Z M 379.035156 1259.214844 "/>
</g>
</svg>
